<?xml version="1.0" encoding="utf-8"?>
<!-- Generator: Adobe Illustrator 16.0.0, SVG Export Plug-In . SVG Version: 6.00 Build 0)  -->
<!DOCTYPE svg PUBLIC "-//W3C//DTD SVG 1.1//EN" "http://www.w3.org/Graphics/SVG/1.1/DTD/svg11.dtd">
<svg version="1.1" id="Layer_1" xmlns="http://www.w3.org/2000/svg" xmlns:xlink="http://www.w3.org/1999/xlink" x="0px" y="0px"
	 width="2063px" height="2063px" viewBox="0 0 2063 2063" enable-background="new 0 0 2063 2063" xml:space="preserve">
<path fill="none" d="M908.202,1768.12c0,0-3.702,5.695-10.066,16.272"/>
<path fill="none" d="M1918.456,1775.249c-2.925-4.706-4.521-7.129-4.521-7.129"/>
<path fill="none" d="M1992.94,1889.279"/>
<path fill="#EE4A53" d="M1884.693,539.368c92.896,150.477,148.318,328.214,148.318,518.422
	c0,542.893-437.061,982.977-976.272,982.977c-539.216,0-976.273-440.084-976.273-982.977c0-190.286,55.31-368.861,148.285-519.373
	L1884.693,539.368z"/>
<path fill="#442F2F" d="M1806.47,537.385c-0.96,0.914-2.204,1.539-3.087,2.16c-179.654,122.426-449.226,200.023-750.655,200.023
	c-298.951,0-566.407-76.368-745.712-196.62c19.477-15.775,40.514-30.617,62.469-44.835
	c171.876-110.372,417.684-179.319,690.675-179.319C1364.371,318.794,1634.563,404.429,1806.47,537.385z"/>
<path fill="#EE6E73" d="M806.85,718.5c-0.011,0-0.011,0-0.021,0c6.336,10,12.617,20.409,18.853,30.509
	C819.456,738.898,813.175,728.5,806.85,718.5z"/>
<path fill="#EE6E73" d="M1838.655,499.368c-172.1-134.27-458.421-222.422-782.328-222.422c-182.485,0-352.993,27.938-497.915,76.407
	c-4.195,1.424-8.39,2.771-12.496,4.195c-3.357,1.169-6.711,2.351-10.067,3.521c-28.931,10.321-56.77,21.47-83.361,33.379
	c-2.848,1.182-5.618,2.517-8.389,3.775c-3.19,1.424-6.37,2.936-9.559,4.437c-63.824,29.86-120.262,64.333-167.649,102.414
	c-13.589,10.642-26.338,21.802-38.16,33.369c0.332,0.254,0.674,0.585,0.917,0.927c12.086,11.833,23.985,22.993,37.916,34.219
	l0.243,0.332c2.77,1.765,4.867,3.609,7.638,6.049l0.243,0.243c172.187,133.938,457.594,221.494,780.905,221.494
	c323.29,0,609.049-87.81,781.137-221.737l0.927-0.674c16.348-13.014,31.779-26.348,46.04-39.926
	C1870.435,525.694,1855.003,512.36,1838.655,499.368z M668.364,690.297c-10.626-2.43-17.629-4.249-30.61-7.912
	c-123.209-33.379-231.892-81.244-319.293-139.868l61.229-43.877c27.85-17.871,57.62-34.617,89.234-50.037
	c3.102-1.601,6.281-3.091,9.471-4.68c2.693-1.259,5.375-2.518,8.146-3.776c27.42-12.915,56.186-24.814,86.132-35.809
	c3.444-1.248,6.866-2.516,10.31-3.686c3.687-1.336,7.473-2.683,11.237-3.94c135.948-46.88,293.884-73.714,462.372-73.714
	c298.134,0,562.997,83.946,731.485,214.187c-0.927,0.938-2.185,1.512-3.014,2.186c-176.128,119.931-440.306,195.996-735.778,195.996
	C965.516,735.366,825.682,730,668.364,690.297"/>
<g>
	<path fill="#FFFFFF" d="M1165.661,1471.36c-52.944,39.174-148.23,115.421-208.587,108.006
		c-83.656-9.53-118.601-74.12-118.601-148.237c0-91.064,68.83-203.299,130.236-266.823
		c73.059-80.474,264.721-229.779,556.957-262.601c20.117-2.119,31.763,2.115,43.396,18c11.664,15.89,19.079,47.647,19.079,67.77
		c0,27.532-22.232,43.413-43.426,57.174c-146.113,95.293-167.286,96.351-176.807,96.351c-8.482,0-13.778-6.348-13.778-14.817
		c0-10.589,21.182-25.415,28.595-30.704l44.475-36.001l-2.124-2.126c-316.588,93.189-505.069,351.537-493.425,404.488
		c5.288,22.235,13.77,40.223,37.058,40.223c22.234,0,54.002-19.048,72.01-32.806l387.537-294.369
		c6.349-6.349,14.829-13.755,24.35-13.755s30.703,12.697,39.167,17.993c11.66,6.349,26.487,14.818,26.487,28.587
		c0,10.589-10.605,28.599-14.827,37.063c-45.529,92.116-112.244,184.238-193.776,312.359l2.115,2.115l232.943-150.362
		c-2.109,46.597,5.305,55.069-138.709,152.476l-170.47,115.416c-43.402,59.286-203.298,232.939-275.29,232.939
		c-26.481,0-38.125-21.175-39.173-44.469c-3.175-70.942,91.059-165.181,194.823-216.007
		c64.583-82.588,125.996-168.346,169.422-261.522l-2.125-2.134L1165.661,1471.36z"/>
</g>
<path fill="#EE6E73" d="M1058.654,780.5c-0.011,0-0.011,0-0.021,0c4.351,7.55,8.681,14,12.98,21c0,0,0,0,0.01,0
	C1067.324,794.5,1063.004,788.05,1058.654,780.5z M700.544,314.34c-3.66,0.8-7.32,1.61-10.96,2.45
	c-36.39,8.26-71.63,17.73-105.57,28.31c-3.46,1.06-6.9,2.15-10.33,3.26c-3.97,1.26-7.92,2.55-11.85,3.85
	c17.28,12.42,33.93,25.32,49.75,38.67c3.82-1.26,7.67-2.5,11.53-3.72c3.22-1.02,6.45-2.03,9.69-3.03
	c30.96-9.53,62.94-18.05,95.82-25.48c3.6-0.82,7.22-1.62,10.85-2.4c4.9-1.07,9.81-2.12,14.75-3.13
	c-13.03-14.5-25.93-28.64-38.37-42.06C710.724,312.13,705.624,313.22,700.544,314.34z"/>
<path fill="#EE6E73" d="M1884.694,539.37c-14.261,13.58-29.69,26.91-46.04,39.93l-0.931,0.67c-169.409,131.85-449,219-766.1,221.68
	c-4.3-6.8-8.62-13.6-12.97-21.15c-0.011,0-0.011,0-0.021,0c4.351,7.55,8.681,14.36,12.98,21.15c-5,0.04-10.011,0.06-15.021,0.06
	c-323.31,0-608.72-87.56-780.91-221.5l-0.24-0.24c-2.77-2.44-4.87-4.28-7.64-6.05l-0.24-0.33c-13.93-11.23-25.83-22.39-37.92-34.22
	c-0.24-0.34-0.58-0.67-0.91-0.93c11.82-11.56,24.57-22.72,38.16-33.37c47.38-38.08,103.82-72.55,167.65-102.41
	c3.19-1.5,6.36-3.01,9.56-4.44c2.77-1.25,5.54-2.59,8.38-3.77c26.6-11.91,54.43-23.06,83.37-33.38c3.35-1.17,6.71-2.35,10.06-3.52
	c4.11-1.43,8.3-2.77,12.5-4.2c1.14-0.38,2.28-0.76,3.42-1.14c17.28,12.42,33.93,25.32,49.75,38.67c-5.83,1.9-11.61,3.85-17.36,5.83
	c-3.77,1.26-7.55,2.61-11.24,3.94c-3.44,1.17-6.87,2.44-10.31,3.69c-29.95,10.99-58.71,22.89-86.13,35.81
	c-2.77,1.26-5.46,2.51-8.15,3.77c-3.19,1.59-6.37,3.08-9.47,4.68c-31.61,15.42-61.38,32.17-89.23,50.04l-61.23,43.88
	c87.4,58.62,196.08,106.49,319.29,139.87c12.98,3.66,19.98,5.48,30.61,7.91c74.51,18.8,145.09,29.91,207.65,36.38
	c2.51,0.26,5,0.51,7.48,0.75c6.43,0.64,12.76,1.23,19,1.77c38.15,3.3,72.84,4.93,103.02,5.66c4.6,0.1,9.1,0.19,13.49,0.27
	c3.83,0.06,7.58,0.11,11.24,0.14c6.63,0.07,12.979,0.1,19.04,0.1c295.47,0,559.649-76.07,735.78-196c0.829-0.67,2.09-1.25,3.01-2.18
	C1619.584,406.94,1354.724,323,1056.594,323c-105.91,0-207.65,10.6-302.37,30.12c-13.03-14.5-25.93-28.64-38.37-42.06
	c105.74-22.04,220.52-34.11,340.47-34.11c323.91,0,610.229,88.15,782.33,222.42C1855.004,512.36,1870.434,525.69,1884.694,539.37z"
	/>
<g>
	<path fill="#FFFFFF" d="M1019.004,735.13c-4.39-0.08-8.89-0.17-13.49-0.27c-30.18-0.73-64.87-2.36-103.02-5.66
		c-6.24-0.54-12.57-1.13-19-1.77c-38.74-56.85-83.48-124.55-123.01-179.35c-10.32-14.1-20.29-27.85-30.28-41.35
		c-6.71-9.14-13.41-18.28-20.12-27.26c-4.53-6.29-9.31-12.41-14.18-18.44c-21.19-26.11-45.77-50.74-72.79-73.87
		c-15.71-13.44-32.25-26.38-49.43-38.8c-123.92-89.67-281.18-152.81-401.95-188.44C-2.036,108.85,38.884,45.2,38.884,45.2
		c123.2,0.67,452.05,92.76,573.32,182.75c17.86,13.38,50.87,46.59,88.34,86.39c12.61,13.39,25.72,27.53,38.93,41.91
		c19.65,21.39,39.51,43.3,58.24,64.1c13.09,14.51,25.67,29.01,37.08,43.1c11.57,14.01,22.05,27.59,31.03,40.51
		C922.234,584.56,978.124,670.8,1019.004,735.13z"/>
	<path fill="#EE6E73" d="M1077.484,811.01c-1.95-3.16-3.91-6.26-5.87-9.36c-4.3-6.79-8.63-13.6-12.98-21.15c0.01,0,0.01,0,0.021,0
		c4.35,7.55,8.67,14.35,12.97,21.15C1073.584,804.75,1075.534,807.85,1077.484,811.01z"/>
	<path fill="#EE4A53" d="M1030.244,735.27c-4.39-0.08-20.13-0.31-24.73-0.41c-52.56-83.19-103.47-160.31-147.58-223.43
		c-53.279-76.24-118.982-146.954-184.29-213.403c-18.879-19.208-38.323-37.873-58.69-55.505
		c-31.014-26.85-70.824-46.405-108.221-62.574c-38.444-16.622-76.89-33.01-116.64-46.303
		C310.715,107.1,230.318,84.339,148.129,68.268C114.339,61.661,79.664,56.176,45.174,55.18c-1.09,4.27-1.76,11.32,1.68,20.12
		c7.72,19.8,36.15,49.07,127.56,75.9l31.2,9.15c110.45,32.33,259.73,96.95,378.4,184.75
		c74.095,54.82,132.498,125.115,185.494,199.847c43.824,61.799,88.192,123.151,132.986,184.253c-6.24-0.54-12.57-1.13-19-1.77
		c-2.48-0.24-4.97-0.49-7.48-0.75c-26.94-37.3-57.45-79.67-88.52-122.83c-41.479-57.469-79.255-118.132-128.822-169.227
		c-14.923-15.383-30.71-29.923-47.088-43.744c-15.82-13.35-32.47-26.25-49.75-38.67c-112.7-81-252.03-141.47-361.59-173.41
		l-31.2-9.23c-80.17-23.49-127.31-53.17-140.47-88.23c-8.73-23.48,1.76-46.53,2.26-47.2l2.85-10.64h5.28
		c122.2,0,454.399,98.2,579.03,190.709c46.447,34.477,85.456,80.132,123.693,123.2c56.067,63.15,108.855,129.169,157.56,198.165
		c35.517,50.314,68.861,102.103,102,154.001"/>
</g>
</svg>
