<?xml version="1.0" encoding="utf-8"?>
<!-- Generator: Adobe Illustrator 16.0.0, SVG Export Plug-In . SVG Version: 6.00 Build 0)  -->
<!DOCTYPE svg PUBLIC "-//W3C//DTD SVG 1.1//EN" "http://www.w3.org/Graphics/SVG/1.1/DTD/svg11.dtd">
<svg version="1.1" xmlns="http://www.w3.org/2000/svg" xmlns:xlink="http://www.w3.org/1999/xlink" x="0px" y="0px" width="500px"
	 height="500px" viewBox="0 0 500 500" enable-background="new 0 0 500 500" xml:space="preserve">
<g id="mate">
	<path fill="#ED4A53" d="M33.466,131.693C14.329,166.882,3.448,207.245,3.448,250.16c0,136.745,110.431,247.598,246.655,247.598
		S496.758,386.905,496.758,250.16c0-42.916-10.882-83.278-30.019-118.467H33.466z"/>
</g>
<g id="initial">
	<g>
		<rect x="149.596" y="242.771" fill="none" width="295.486" height="275.986"/>
		<path fill="#FFFFFF" d="M234.596,355.77c-12.5,9.25-35,27.25-49.25,25.5c-19.75-2.25-28-17.5-28-35c0-21.5,16.25-48,30.75-63
			c17.25-19,62.5-54.25,131.5-62c4.75-0.5,7.5,0.5,10.25,4.25s4.5,11.25,4.5,16c0,6.5-5.25,10.25-10.25,13.5
			c-34.5,22.5-39.5,22.75-41.75,22.75c-2,0-3.25-1.5-3.25-3.5c0-2.5,5-6,6.75-7.25l10.5-8.5l-0.5-0.5
			c-74.75,22-119.25,83-116.5,95.5c1.25,5.25,3.25,9.5,8.75,9.5c5.25,0,12.75-4.5,17-7.75l91.5-69.5c1.5-1.5,3.5-3.25,5.75-3.25
			s7.25,3,9.25,4.25c2.75,1.5,6.25,3.5,6.25,6.75c0,2.5-2.5,6.75-3.5,8.75c-10.75,21.75-26.5,43.5-45.75,73.75l0.5,0.5l55-35.5
			c-0.5,11,1.25,13-32.75,36l-40.25,27.25c-10.25,14-48,55-65,55c-6.25,0-9-5-9.25-10.5c-0.75-16.75,21.5-39,46-51
			c15.25-19.5,29.75-39.75,40-61.75l-0.5-0.5L234.596,355.77z"/>
	</g>
</g>
<g id="border">
	<g>
		<defs>
			<ellipse id="SVGID_1_" cx="250.155" cy="71.103" rx="247.603" ry="125.104"/>
		</defs>
		<clipPath id="SVGID_2_">
			<use xlink:href="#SVGID_1_"  overflow="visible"/>
		</clipPath>
		<path clip-path="url(#SVGID_2_)" fill="#EE6D73" d="M467.613,131.686H32.702c-19.214,35.191-30.15,75.55-30.15,118.469
			c0,136.748,110.855,247.604,247.603,247.604c136.748,0,247.604-110.855,247.604-247.604
			C497.758,207.236,486.826,166.876,467.613,131.686z"/>
	</g>
	<g>
		<defs>
			<ellipse id="SVGID_3_" cx="250.145" cy="192.322" rx="247.603" ry="125.104"/>
		</defs>
		<clipPath id="SVGID_4_">
			<use xlink:href="#SVGID_3_"  overflow="visible"/>
		</clipPath>
		<path clip-path="url(#SVGID_4_)" fill="#EE6D73" d="M32.687,131.739h434.911c19.215-35.191,30.15-75.55,30.15-118.469
			c0-136.748-110.855-247.604-247.603-247.604c-136.748,0-247.604,110.855-247.604,247.604
			C2.542,56.189,13.474,96.549,32.687,131.739z"/>
	</g>
</g>
<g id="hole">
	<g>
		<defs>
			<ellipse id="SVGID_5_" cx="250.059" cy="85.283" rx="216.493" ry="95.783"/>
		</defs>
		<clipPath id="SVGID_6_">
			<use xlink:href="#SVGID_5_"  overflow="visible"/>
		</clipPath>
		<path clip-path="url(#SVGID_6_)" fill="#442F2F" d="M440.193,131.667H59.928c-16.8,26.943-26.361,57.844-26.361,90.705
			c0,104.698,96.926,189.572,216.492,189.572c119.564,0,216.493-84.874,216.493-189.572
			C466.552,189.512,456.994,158.611,440.193,131.667z"/>
	</g>
	<g>
		<defs>
			<ellipse id="SVGID_7_" cx="250.065" cy="178.073" rx="216.492" ry="95.783"/>
		</defs>
		<clipPath id="SVGID_8_">
			<use xlink:href="#SVGID_7_"  overflow="visible"/>
		</clipPath>
		<path clip-path="url(#SVGID_8_)" fill="#442F2F" d="M59.93,131.689h380.267c16.799-26.943,26.361-57.844,26.361-90.704
			c0-104.699-96.926-189.574-216.491-189.574c-119.567,0-216.494,84.875-216.494,189.574
			C33.573,73.845,43.131,104.746,59.93,131.689z"/>
	</g>
</g>
<g id="bombilla">
	<path fill="#FFFFFF" d="M207.216,179.74c3.373,0.309,6.738,0.707,10.125,0.892c0.519,0,1.025,0.004,1.503,0.02
		c1.303,0.044,2.606,0.082,3.91,0.119c1.678,0.023,3.357,0.051,5.035,0.064c-0.561-1.072-1.034-2.345-1.772-4.141
		c-0.851-2.071-3.932-5.931-5.039-7.945c-3.616-4.438-4.7-10.175-8.765-14.21c-0.752-1.164-1.509-2.325-2.291-3.472
		C201.79,139.126,194.812,127.191,187,115c-7.786-12.151-14.874-24.604-23.574-36.118c-7.491-9.915-19.599-16.121-29.426-23.347
		c-0.982-0.722,0.125-0.625-4.25-2.16c-11.26-7.288-22.505-10.959-35.875-14c-10.746-2.444,0,0-10.75-3
		c-9.142-2.046-16.677-3.372-25.625-6.125c-9.169-2.822,0,0-27.397-7.081c-2.412-0.623,0,0-3.357-0.28
		c-0.311-0.289-1.36-0.157-1.712-0.4c-0.738-0.509-1.477-0.622-2.341-0.726c-0.864-0.104-4.604-0.981-5.19-0.388
		c-0.651,0.658,0.445,3.158,0.445,4.088c0,0.93,1.628,1.655,2.279,2.312c0.345,0.349,0.709,0.571,1.101,0.724
		c0.02,0.021,0.042,0.04,0.062,0.06c0.999,1.004,1.285,1.629,3.11,2.566c0.263,0.286,0.607,1.117,0.994,1.346
		c5.149,3.051,8.979,4.1,14.631,5.404c4.978,1.785,3.221,1.157,4.978,1.785c12.178,4.35,23.94,8.572,36.397,11.965
		c0.684,0.187,1.435,0.494,2,0.375c0.45,0.317,1.546,0.5,2.125,0.75c28.597,12.338,46.5,15.375,72.078,52.741
		c10.724,15.666,21.297,30.759,31.691,48.057c1.607,2.674,3.703,5.659,6.153,8.048C200.103,169.182,203.397,174.613,207.216,179.74z
		"/>
	<g>
		<g>
			<path fill="#ED4A53" d="M16.838,22.618c26.497,5.999,53.254,11.075,79.079,19.667c26.141,8.698,55.902,21.866,71.431,45.718
				c20.242,31.092,39.334,63.007,59.039,94.45c0.208,0.332,0.415,0.663,0.623,0.994c1.708,2.725,6.035,0.217,4.317-2.523
				c-18.066-28.828-36.128-57.658-54.166-86.504c-6.86-10.972-13.384-20.813-23.856-28.732c-10.952-8.282-23.093-14.888-35.641-20.4
				c-24.688-10.843-51.138-16.87-77.376-22.614c-7.376-1.615-14.756-3.209-22.12-4.876C15.027,17.085,13.693,21.906,16.838,22.618
				L16.838,22.618z"/>
		</g>
	</g>
	<g>
		<g>
			<path fill="#ED4A53" d="M15.092,19.542c-1.988,7.923,5.236,13.084,11.371,16.316c11.201,5.901,23.839,9.26,35.851,13.057
				c15.482,4.894,30.993,9.869,45.782,16.632c13.736,6.282,27.605,14.403,36.929,26.578c1.932,2.523,6.278,0.037,4.317-2.523
				c-18.052-23.573-49.248-33.75-76.398-42.543c-12.653-4.097-25.537-7.691-37.868-12.711c-4.764-1.939-16.941-6.381-15.162-13.476
				C20.698,17.743,15.876,16.417,15.092,19.542L15.092,19.542z"/>
		</g>
	</g>
	<g>
		<g>
			<path fill="#ED4A53" d="M145.415,92.631c14.119,16.901,25.988,35.776,37.681,54.393c7.15,11.383,14.159,22.867,20.913,34.49
				c1.619,2.786,5.94,0.27,4.317-2.523c-6.754-11.624-13.774-23.099-20.913-34.49c-11.903-18.994-24.068-38.173-38.463-55.404
				C146.88,86.618,143.363,90.175,145.415,92.631L145.415,92.631z"/>
		</g>
	</g>
</g>
<g id="patch">
	<g>
		<g>
			<path fill="#EE6D73" d="M200.43,183.55c11.257,1.11,22.452,1.927,33.757,2.27c3.226,0.098,3.217-4.902,0-5
				c-11.306-0.343-22.5-1.16-33.757-2.27C197.222,178.233,197.252,183.236,200.43,183.55L200.43,183.55z"/>
		</g>
	</g>
	<g>
	</g>
	<g>
	</g>
	<g>
	</g>
	<g>
	</g>
	<g>
	</g>
	<g>
	</g>
</g>
</svg>
