<?xml version="1.0" encoding="utf-8"?>
<!-- Generator: Adobe Illustrator 16.0.0, SVG Export Plug-In . SVG Version: 6.00 Build 0)  -->
<!DOCTYPE svg PUBLIC "-//W3C//DTD SVG 1.1//EN" "http://www.w3.org/Graphics/SVG/1.1/DTD/svg11.dtd">
<svg version="1.1" id="Layer_1" xmlns="http://www.w3.org/2000/svg" xmlns:xlink="http://www.w3.org/1999/xlink" x="0px" y="0px"
	 width="2063px" height="1887.916px" viewBox="0 0 2063 1887.916" enable-background="new 0 0 2063 1887.916" xml:space="preserve">
<g>
	<path fill="none" d="M1036.391,1632.17c0,0-3.354,5.159-9.118,14.741"/>
	<path fill="none" d="M1951.498,1638.631c-2.651-4.265-4.097-6.461-4.097-6.461"/>
	<path fill="none" d="M2009.956,1783.503"/>
	<path fill="#FFFFFF" d="M2222.868,850.454c0.606,0.451,1.221,0.906,1.742,1.362c-0.073,0-0.145,0.08-0.218,0.155
		C2223.851,851.36,2223.395,850.905,2222.868,850.454z"/>
	<g>
		<path fill="#EE4A53" d="M1920.915,519.148c84.147,136.304,134.349,297.302,134.349,469.594
			c0,491.761-395.897,890.396-884.324,890.396c-488.431,0-884.323-398.636-884.323-890.396c0-172.364,50.102-334.12,134.319-470.457
			"/>
		<path fill="#442F2F" d="M1850.056,517.352c-0.87,0.827-1.996,1.394-2.795,1.956c-162.734,110.896-406.915,181.184-679.955,181.184
			c-270.795,0-513.061-69.174-675.48-178.101c17.643-14.29,36.699-27.733,56.586-40.612
			c155.688-99.977,378.345-162.431,625.625-162.431C1449.6,319.348,1694.341,396.917,1850.056,517.352z"/>
		<path fill="#EE6E73" d="M1879.209,482.912c-155.883-121.624-415.245-201.47-708.639-201.47
			c-165.304,0-319.75,25.301-451.021,69.214c-3.8,1.29-7.601,2.503-11.326,3.797c-3.038,1.062-6.077,2.125-9.115,3.186
			c-26.203,9.347-51.428,19.452-75.515,30.235c-2.579,1.07-5.086,2.28-7.598,3.426c-2.882,1.29-5.769,2.655-8.66,4.021
			c-57.808,27.045-108.936,58.266-151.859,92.762c-12.309,9.642-23.852,19.747-34.567,30.231c0.307,0.227,0.611,0.527,0.838,0.834
			c10.939,10.72,21.727,20.825,34.339,30.998l0.224,0.303c2.511,1.593,4.407,3.27,6.915,5.474l0.228,0.224
			c155.963,121.324,414.49,200.635,707.355,200.635c292.834,0,551.677-79.542,707.56-200.859l0.839-0.61
			c14.812-11.782,28.785-23.859,41.705-36.165C1907.995,506.764,1894.021,494.686,1879.209,482.912z M1830.668,519.148
			c-159.54,108.64-398.835,177.539-666.485,177.539c-75.888,0-149.494-5.542-219.619-15.949
			c11.482,18.533,22.789,36.926,33.816,54.849l-26.741-9.017c-1.677-2.723-3.338-9.611-5.022-9.611h-97.465
			c-3.877,0-8.205-8.619-12.844-14.695l-5.769-0.393c-11.087-15.123-24.387-32.978-39.126-53.336
			c-111.603-30.235-210.05-73.504-289.213-126.608l55.456-39.713c25.225-16.186,52.194-31.329,80.832-45.303
			c2.807-1.446,5.694-2.792,8.584-4.233c2.436-1.138,4.863-2.267,7.37-3.409c24.841-11.702,50.9-22.477,78.022-32.43
			c3.118-1.138,6.224-2.276,9.342-3.346c3.342-1.21,6.763-2.423,10.181-3.561c123.141-42.468,266.2-66.774,418.825-66.774
			c270.054,0,509.964,76.037,662.589,194.016C1832.562,518.015,1831.419,518.541,1830.668,519.148z"/>
		<g>
			<path fill="#FFFFFF" d="M933.561,678.988c-4.559-0.683-9.119-1.37-13.606-2.204c-34.56-5.697-68.224-12.604-100.815-20.737
				c-6.987-1.669-13.978-3.498-20.82-5.318c-37.673-54.697-83.715-124.969-123.82-180.577
				c-9.351-12.764-18.382-25.225-27.429-37.454c-6.077-8.281-12.153-16.561-18.229-24.689c-4.104-5.701-8.433-11.243-12.844-16.708
				c-110.836-136.6-324.151-215.304-474.8-259.745C-16.208,85.294,20.863,27.635,20.863,27.635
				c111.598,0.607,409.471,84.022,519.32,165.537c29.709,22.254,105.75,92.147,168.041,161.281
				c11.854,13.144,23.252,26.283,33.581,39.043c10.484,12.692,19.979,24.993,28.115,36.695
				C833.724,521.352,896.79,620.494,933.561,678.988z"/>
			<path fill="#EE6E73" d="M978.38,735.586l-26.741-9.017c-1.677-2.723-3.338-9.611-5.022-9.611h-97.465
				c-3.877,0-8.205-8.619-12.844-14.695l20.968,5.005c-10.104-13.754-23.244-31.31-38.136-51.591
				c32.591,8.129,66.256,15.221,100.815,20.915c4.487,0.842,9.047,1.618,13.606,2.305c3.641,0.603,7.282,1.266,11.003,1.792
				C956.047,699.221,967.354,717.664,978.38,735.586z"/>
			<path fill="#EE6E73" d="M857.276,708.014l-20.968-4.26c-10.936-14.429-23.923-32.667-37.988-53.025
				c6.843,1.82,13.833,3.649,20.82,5.318C834.032,676.329,847.171,694.259,857.276,708.014z"/>
			<path fill="#EE6E73" d="M836.308,703.754l-5.769-1.138c-11.087-15.116-24.387-33.354-39.126-53.711
				c2.284,0.611,4.563,1.217,6.907,1.824C812.384,671.087,825.372,689.325,836.308,703.754z"/>
			<path fill="#EE4A53" d="M944.564,680.737c-3.721-0.536-7.363-1.138-11.003-1.749c-4.559-0.683-9.119-1.37-13.606-2.204
				c-55.844-89.567-110.689-173.283-157.181-239.83c-9.263-13.219-19.448-26.666-30.311-40.113
				c-10.636-13.139-21.879-26.287-33.354-39.203c-64.798-72.699-138.412-138.26-164.092-157.404
				C426.386,119.63,139.528,39.94,26.56,36.674c-0.986,3.873-1.593,10.256,1.521,18.229c6.991,17.93,32.743,44.444,115.547,68.75
				l28.263,8.285c138.868,40.647,345.503,124.662,451.704,255.936c4.256,5.247,8.36,10.561,12.233,15.958
				c6.232,8.276,12.38,16.785,18.613,25.448c2.355,3.19,4.631,6.456,6.991,9.722c6.607,9.194,13.295,18.537,20.13,27.808
				l31.449,43.758c34.639,48.009,74.376,102.18,106.128,145.479c-6.987-1.669-13.978-3.498-20.82-5.318
				c-2.344-0.607-4.624-1.213-6.907-1.824c-27.193-37.602-59.48-82.426-92.45-128.232l-31.533-43.686
				c-6.755-9.271-13.439-18.609-20.055-27.808c-2.962-4.097-5.925-8.205-8.887-12.225c-5.545-7.75-11.091-15.423-16.636-22.865
				c-4.636-6.388-9.495-12.616-14.513-18.769C504.1,270.351,308.255,189.826,167.024,148.652l-28.259-8.356
				C66.142,119.02,23.445,92.13,11.52,60.377c-7.901-21.272,1.594-43.16,2.053-43.767l2.579-10.652h4.783
				c110.688,0,411.604,89.96,524.491,173.755c28.108,21.041,106.74,92.8,174.125,170.97c11.244,12.991,22.107,26.12,32.436,39.264
				c8.888,11.314,17.244,22.627,25.069,33.718C823.396,489.984,886.226,587.145,944.564,680.737z"/>
		</g>
	</g>
	<g>
		<path fill="#FFFFFF" d="M1269.602,1363.361c-47.958,35.485-134.269,104.548-188.941,97.833
			c-75.777-8.632-107.43-67.139-107.43-134.276c0-82.486,62.346-184.151,117.97-241.691
			c66.18-72.895,239.789-208.137,504.501-237.869c18.222-1.92,28.771,1.917,39.31,16.306c10.564,14.393,17.28,43.159,17.28,61.385
			c0,24.941-20.138,39.326-39.334,51.791c-132.353,86.318-151.532,87.276-160.155,87.276c-7.682,0-12.48-5.75-12.48-13.424
			c0-9.588,19.188-23.021,25.902-27.812l40.285-32.61l-1.925-1.925c-286.773,84.411-457.499,318.427-446.953,366.393
			c4.792,20.139,12.475,36.435,33.569,36.435c20.138,0,48.917-17.254,65.229-29.718l351.037-266.644
			c5.749-5.751,13.432-12.459,22.055-12.459s27.812,11.5,35.478,16.299c10.563,5.748,23.994,13.422,23.994,25.896
			c0,9.591-9.605,25.903-13.431,33.569c-41.242,83.442-101.673,166.887-175.526,282.94l1.916,1.917l211.005-136.201
			c-1.909,42.209,4.806,49.883-125.645,138.117l-154.414,104.547c-39.317,53.699-184.15,210.997-249.363,210.997
			c-23.986,0-34.534-19.181-35.484-40.277c-2.876-64.264,82.482-149.623,176.475-195.665
			c58.498-74.811,114.13-152.489,153.464-236.891l-1.924-1.933L1269.602,1363.361z"/>
	</g>
</g>
</svg>
